<svg width="500" height="500" viewBox="0 0 500 500" fill="none" xmlns="http://www.w3.org/2000/svg">
<path d="M333.36 334.636C380.105 287.89 380.105 212.1 333.36 165.354C286.614 118.609 210.824 118.609 164.078 165.354C117.332 212.1 117.332 287.89 164.078 334.636C210.824 381.382 286.614 381.382 333.36 334.636Z" fill="white" stroke="#186CE8" stroke-width="4" stroke-miterlimit="10"/>
<path d="M129 247.35C129 247.35 141.69 240.46 146.24 247.35C150.79 254.24 139.71 276 141.22 280C142.73 284 146.82 294.2 143.27 303.28C139.72 312.36 125 262.7 129 247.35Z" fill="#EFF5FE"/>
<path d="M182.379 349.65C182.379 349.65 183.669 330.54 180.129 321.44C176.589 312.34 158.399 312.2 152.339 309C146.279 305.8 144.539 309 144.539 309C144.539 309 170.219 342.53 182.379 349.65Z" fill="#EFF5FE"/>
<path d="M293.309 219.37C293.309 219.37 295.839 229.48 290.789 232.51C285.739 235.54 277.139 228.97 268.549 232.51C268.549 232.51 255.919 238.2 252.889 233.34C249.859 228.48 249.349 222.91 243.289 221.4C237.229 219.89 212.469 220.89 207.919 224.93C203.369 228.97 204.379 235.3 204.379 235.3C204.379 235.3 186.699 243.12 186.699 263.84C186.699 284.56 202.869 293.65 215.499 293.15C228.129 292.65 239.879 292.15 240.319 296.15C240.759 300.15 239.249 305.6 243.319 308.96C247.389 312.32 249.619 316.86 248.749 333.03C247.879 349.2 253.429 354.26 258.479 354.26C263.529 354.26 282.229 346.17 288.289 325.45C294.349 304.73 305.999 298.7 309.479 294.66C312.959 290.62 315.039 286.07 309.479 282.03C303.919 277.99 296.849 273.95 296.349 265.86C295.849 257.77 291.289 250.2 293.349 246.66C295.409 243.12 303.459 248.18 302.949 256.26C302.439 264.34 305.479 271.16 310.529 274.57C315.579 277.98 325.689 274.96 328.719 267.38C331.749 259.8 326.719 250.2 321.139 247.17C315.559 244.14 313.569 239.59 318.139 239.59C322.709 239.59 342.399 242.59 345.929 257.27C349.459 271.95 350.919 282.54 353.999 280C357.079 277.46 354.499 269.39 359.049 264.84C361.876 262.033 364.952 259.489 368.239 257.24C368.239 257.24 371.239 213.49 351.619 188.75C331.999 164.01 308.469 141.63 300.669 142.1C292.869 142.57 287.299 150.1 284.269 151.1C281.239 152.1 278.709 141.57 268.099 142.04C257.489 142.51 252.439 148.04 246.369 152.11C240.299 156.18 232.219 156.11 235.759 164.74C239.299 173.37 250.409 169.29 251.429 165.25C252.449 161.21 253.429 150.6 258.499 151.1C263.569 151.6 259.499 156.15 262.039 159.69C262.953 160.97 264.169 162.004 265.578 162.702C266.988 163.4 268.547 163.739 270.119 163.69C272.119 163.69 264.559 167.74 262.539 173.8C260.519 179.86 251.039 179.36 248.769 174.3C246.499 169.24 237.279 169.25 236.269 174.81C235.259 180.37 222.119 183.4 223.129 189.97C224.139 196.54 226.669 200.07 219.589 201.08C212.509 202.09 195.839 205.63 201.909 215.23C207.979 224.83 219.089 219.23 222.119 214.73C225.149 210.23 235.759 202.6 240.309 205.63C244.859 208.66 248.629 210.18 248.769 214.22C248.909 218.26 254.459 218.77 255.469 215.74C256.479 212.71 247.889 207.15 250.919 202.6C253.949 198.05 262.539 204.12 261.029 209.17C259.519 214.22 255.969 222.81 260.029 224.33C264.089 225.85 266.189 218.77 266.139 214.22C266.089 209.67 278.729 194.52 285.799 195.53C292.869 196.54 294.899 196.53 295.399 200.07C295.738 201.859 296.67 203.481 298.046 204.673C299.422 205.866 301.16 206.559 302.979 206.64C306.519 206.64 303.979 212.71 294.899 209.64C285.819 206.57 276.959 207.64 277.589 215.2C278.219 222.76 287.249 223.42 293.309 219.37Z" fill="#EFF5FE"/>
<path d="M163.58 165.86C163.58 165.86 174.48 168.34 182.58 160.26C190.68 152.18 190.21 151.16 195.76 150.66C201.31 150.16 205.36 147.66 209.41 144.59C213.46 141.52 216.99 145.59 221.03 142.08C225.07 138.57 230.09 131.73 230.09 131.73C230.09 131.73 175.32 145.19 163.58 165.86Z" fill="#EFF5FE"/>
<path d="M201.489 156.1C204.379 152.48 205.109 152.24 208.239 152.72C211.369 153.2 215.719 150.42 216.239 152.53C216.759 154.64 214.309 158.03 212.129 158.27C209.949 158.51 207.789 162.13 206.129 160.92C204.469 159.71 202.749 159.71 201.549 158.99C200.349 158.27 201.489 156.1 201.489 156.1Z" fill="#EFF5FE"/>
<path d="M210.901 174.91C209.501 177.28 208.011 177.09 208.611 178.77C209.211 180.45 208.001 180.22 207.041 182.15C206.081 184.08 206.041 185.29 208.611 185.05C211.181 184.81 212.351 185.29 213.551 183.12C214.751 180.95 218.261 178.77 216.271 176.6C214.281 174.43 213.191 171.05 210.901 174.91Z" fill="#EFF5FE"/>
<path d="M219.821 166.22C219.821 166.22 215.611 168.4 216.271 171.29C216.931 174.18 220.551 175.4 219.821 177.09C219.091 178.78 216.691 181.91 214.761 186.49C212.831 191.07 218.551 194.27 219.921 192.77C220.921 191.64 219.101 190.35 221.751 186.98C224.401 183.61 226.101 184.08 226.101 181.91C226.101 179.74 223.681 179.26 223.681 176.6C223.681 173.94 225.861 168.87 219.821 166.22Z" fill="#EFF5FE"/>
<path d="M335.63 168.77C325.282 158.248 313.077 149.731 299.63 143.65C306.376 148.252 312.644 153.518 318.34 159.37C329.273 170.303 337.946 183.283 343.863 197.568C349.78 211.853 352.825 227.163 352.825 242.625C352.825 258.087 349.78 273.397 343.863 287.682C337.946 301.967 329.273 314.947 318.34 325.88C283.04 361.18 230.46 369.25 187.34 350.34C233.03 380.4 293.68 374.55 333.86 334.34C379.81 288.39 381.61 214.75 335.63 168.77Z" fill="#D1E2FA"/>
<path d="M333.36 334.636C380.105 287.89 380.105 212.1 333.36 165.354C286.614 118.609 210.824 118.609 164.078 165.354C117.332 212.1 117.332 287.89 164.078 334.636C210.824 381.382 286.614 381.382 333.36 334.636Z" stroke="#186CE8" stroke-width="4" stroke-miterlimit="10"/>
<path d="M248.42 193.17C168.87 195.42 105.09 222.25 105.96 253.08C106.31 265.17 116.53 276.08 133.63 284.74" stroke="#186CE8" stroke-width="4" stroke-miterlimit="10" stroke-linecap="round"/>
<path d="M234.439 177.87L248.819 192.25C249.132 192.563 249.308 192.988 249.308 193.43C249.308 193.873 249.132 194.297 248.819 194.61L234.999 208.42" stroke="#186CE8" stroke-width="4" stroke-miterlimit="10" stroke-linecap="round"/>
<path d="M335.856 247.435C327.558 244.484 318.672 243.568 309.946 244.766C301.22 245.964 292.91 249.24 285.714 254.318C278.517 259.396 272.646 266.129 268.594 273.949C264.541 281.769 262.426 290.447 262.426 299.255C262.426 308.063 264.541 316.742 268.594 324.562C272.646 332.382 278.517 339.114 285.714 344.192C287.135 345.195 288.6 346.128 290.104 346.989C303.645 343.229 314.15 337.962 335.856 330.242V247.435Z" fill="#D1E2FA"/>
<path d="M352.117 313.255L390.597 351.045" stroke="#186CE8" stroke-width="4" stroke-miterlimit="10"/>
<path d="M316.357 333.115C346.727 333.115 371.347 308.495 371.347 278.125C371.347 247.755 346.727 223.135 316.357 223.135C285.987 223.135 261.367 247.755 261.367 278.125C261.367 308.495 285.987 333.115 316.357 333.115Z" fill="#74A7F1" stroke="#186CE8" stroke-width="4" stroke-miterlimit="10"/>
<path d="M351.19 271.216C352.762 269.801 351.909 267.186 349.804 266.959L330.22 264.891C329.354 264.798 328.595 264.251 328.249 263.45L320.229 245.451C319.363 243.516 316.631 243.516 315.766 245.451L307.745 263.463C307.386 264.264 306.64 264.811 305.774 264.904L286.19 266.973C284.085 267.199 283.245 269.801 284.804 271.229L299.432 284.438C300.085 285.025 300.365 285.906 300.192 286.76L296.102 306.04C295.662 308.108 297.887 309.722 299.712 308.668L316.778 298.808C317.537 298.368 318.47 298.368 319.216 298.808L336.282 308.668C338.121 309.722 340.332 308.108 339.893 306.04L335.803 286.746C335.616 285.892 335.909 285.012 336.562 284.425L351.19 271.216Z" fill="white"/>
<path d="M364.271 323.289L361.244 326.371C358.546 329.117 358.586 333.53 361.332 336.227L393.383 367.714C396.13 370.411 400.543 370.372 403.24 367.626L406.267 364.544C408.965 361.798 408.926 357.385 406.18 354.687L374.128 323.201C371.382 320.503 366.969 320.543 364.271 323.289Z" fill="white" stroke="#186CE8" stroke-width="4.03" stroke-miterlimit="10"/>
</svg>
