<svg width="64" height="64" viewBox="0 0 64 64" fill="none" xmlns="http://www.w3.org/2000/svg">
<g opacity="0.9">
<path d="M43.453 20.3651H41.9301V18.4656H43.1552C43.8408 18.4656 44.3971 17.9093 44.3971 17.2237V15.9086C44.3971 15.223 43.8408 14.6667 43.1552 14.6667H30.4265C29.7409 14.6667 29.1845 15.223 29.1845 15.9086V17.2237C29.1845 17.9093 29.7409 18.4656 30.4265 18.4656H31.6459V20.3651H30.3422C26.7287 20.3651 23.8008 23.293 23.8008 26.9065V37.6345L17.3718 41.7313C19.7377 45.4403 24.1211 47.0644 28.1673 46.1091H45.6335C48.0443 46.1091 50 44.1534 50 41.7426V26.9065C50 23.293 47.0665 20.3651 43.453 20.3651Z" fill="#D1E2FA"/>
<path d="M39.7777 20.9102H27.049C26.3634 20.9102 25.807 20.3539 25.807 19.6682V18.3532C25.807 17.6676 26.3634 17.1113 27.049 17.1113H39.7777C40.4633 17.1113 41.0196 17.6676 41.0196 18.3532V19.6682C41.0196 20.3539 40.4633 20.9102 39.7777 20.9102Z" stroke="#4689ED" stroke-width="2" stroke-miterlimit="10"/>
<path d="M38.5581 20.9103H28.274V22.8098H38.5581V20.9103Z" stroke="#4689ED" stroke-width="2" stroke-miterlimit="10"/>
<path d="M20.429 40.1185V29.3511C20.429 25.7376 23.3568 22.8097 26.9703 22.8097H40.0812C43.6946 22.8097 46.6225 25.7376 46.6225 29.3511V44.1872C46.6225 46.598 44.6669 48.5537 42.256 48.5537H24.7505" stroke="#4689ED" stroke-width="2" stroke-miterlimit="10"/>
<path d="M20.429 29.3512H46.6281" stroke="#4689ED" stroke-width="2" stroke-miterlimit="10"/>
<path d="M31.6515 43.0745H46.6281" stroke="#4689ED" stroke-width="2" stroke-miterlimit="10"/>
<path d="M14 44.176C16.9897 48.8629 23.2107 50.2397 27.9032 47.25C32.5901 44.2603 33.9669 38.0393 30.9772 33.3468L14 44.176Z" stroke="#4689ED" stroke-width="2" stroke-miterlimit="10"/>
<path d="M29.3756 34.6786C31.7472 38.3989 30.6569 43.333 26.9367 45.7045C23.2164 48.076 18.2823 46.9858 15.9108 43.2655" stroke="#4689ED" stroke-width="2" stroke-miterlimit="10"/>
<path d="M24.4358 37.8257C25.0259 38.753 24.7561 39.9837 23.8289 40.5794C22.9016 41.1695 21.6709 40.8997 21.0752 39.9725" stroke="#4689ED" stroke-width="2" stroke-miterlimit="10"/>
<path d="M27.049 45.6258L23.8289 40.5737" stroke="#4689ED" stroke-width="2" stroke-miterlimit="10"/>
<path d="M21.064 46.8004L22.3565 40.8491" stroke="#4689ED" stroke-width="2" stroke-miterlimit="10"/>
<path d="M30.6399 40.6973L24.7 39.3542" stroke="#4689ED" stroke-width="2" stroke-miterlimit="10"/>
</g>
</svg>
