<svg width="64" height="64" viewBox="0 0 64 64" fill="none" xmlns="http://www.w3.org/2000/svg">
<g opacity="0.9">
<path fill-rule="evenodd" clip-rule="evenodd" d="M52.9595 41.4407H13.9896V17.9725C13.9896 16.4909 15.1893 15.2968 16.6654 15.2968H50.2782C51.7598 15.2968 52.9539 16.4965 52.9539 17.9725V41.4407H52.9595Z" fill="#D1E2FA"/>
<path fill-rule="evenodd" clip-rule="evenodd" d="M53.3188 45.974H13.6247C12.1431 45.974 10.949 44.7743 10.949 43.2983V41.9936C10.949 41.6895 11.1978 41.4407 11.5018 41.4407H55.4472C55.7513 41.4407 56.0001 41.6895 56.0001 41.9936V43.2983C55.9945 44.7743 54.8004 45.974 53.3188 45.974Z" fill="#D1E2FA"/>
<path fill-rule="evenodd" clip-rule="evenodd" d="M49.3437 44.0942H10.3739V20.6261C10.3739 19.1445 11.5736 17.9503 13.0497 17.9503H46.6624C48.144 17.9503 49.3382 19.15 49.3382 20.6261V44.0942H49.3437Z" stroke="#4689ED" stroke-width="2" stroke-miterlimit="10"/>
<path fill-rule="evenodd" clip-rule="evenodd" d="M49.7032 48.633H10.0091C8.52751 48.633 7.33337 47.4334 7.33337 45.9573V44.6526C7.33337 44.3485 7.58215 44.0997 7.88622 44.0997H51.8316C52.1357 44.0997 52.3845 44.3485 52.3845 44.6526V45.9573C52.3789 47.4334 51.1793 48.633 49.7032 48.633Z" stroke="#4689ED" stroke-width="2" stroke-miterlimit="10"/>
<path d="M14.4817 39.7379L21.0108 28.9077C21.1268 28.7197 21.3867 28.6921 21.5359 28.8579L26.5502 34.3477C26.6995 34.508 26.9538 34.4859 27.0699 34.3034L32.3938 25.8228C32.4767 25.6957 32.637 25.6349 32.7808 25.6846L37.795 27.4095C37.8945 27.4427 38.0051 27.4261 38.0936 27.3653L44.6226 22.6606" stroke="#4689ED" stroke-width="2" stroke-miterlimit="10" stroke-linecap="round"/>
<path d="M40.7139 29.5988V38.494" stroke="#4689ED" stroke-width="2" stroke-miterlimit="10" stroke-linecap="round"/>
<path d="M45.1643 34.0492H36.269" stroke="#4689ED" stroke-width="2" stroke-miterlimit="10" stroke-linecap="round"/>
</g>
</svg>
