<svg width="501" height="500" viewBox="0 0 501 500" fill="none" xmlns="http://www.w3.org/2000/svg">
<path d="M219.316 343.959L180.278 264.26L158.98 268.645L200.331 353.213L219.316 343.959Z" fill="#D1E2FA" stroke="#186CE8" stroke-width="4" stroke-linejoin="round"/>
<path d="M181.312 202.708L133.87 211.074C133.87 211.074 123.319 216.089 128.121 243.322C132.923 270.555 144.553 271.66 144.553 271.66L191.995 263.294L181.312 202.708Z" fill="#EFF5FE" stroke="#186CE8" stroke-width="4" stroke-linejoin="round"/>
<path d="M306.695 235.649L294.182 188.726L287.404 187.162C290.185 206.8 293.973 243.99 295.225 243.99C296.476 243.99 304.609 237.734 306.695 235.649Z" fill="#D1E2FA"/>
<path d="M313.987 210.549C309.616 185.764 284 184.601 284 184.601L294.683 245.188C294.683 245.188 318.357 235.334 313.987 210.549Z" stroke="#186CE8" stroke-width="4"/>
<path d="M205.336 260.888L194.563 199.795C234.89 192.685 264.678 158.876 277.604 142.318L303.135 287.109C262.099 258.565 222.886 257.374 205.336 260.888Z" fill="white" stroke="#186CE8" stroke-width="4" stroke-linejoin="round"/>
<path d="M326.612 167.79L363.037 137" stroke="#FA8B6B" stroke-width="4" stroke-linecap="round"/>
<path d="M337.131 203.218L384.388 196.772" stroke="#FA8B6B" stroke-width="4" stroke-linecap="round"/>
<path d="M337.13 236.942L380.518 256.748" stroke="#FA8B6B" stroke-width="4" stroke-linecap="round"/>
</svg>
