<svg width="500" height="500" viewBox="0 0 500 500" fill="none" xmlns="http://www.w3.org/2000/svg">
<path d="M313.47 120.04H152.09V371.26C152.089 372.226 152.278 373.183 152.646 374.076C153.015 374.969 153.556 375.78 154.239 376.464C154.922 377.147 155.732 377.69 156.625 378.06C157.517 378.43 158.474 378.62 159.44 378.62H336.11C337.077 378.621 338.034 378.432 338.928 378.062C339.822 377.693 340.633 377.151 341.317 376.467C342.001 375.784 342.543 374.972 342.912 374.078C343.282 373.185 343.471 372.227 343.47 371.26V150.04C343.47 142.084 340.309 134.453 334.683 128.827C329.057 123.201 321.426 120.04 313.47 120.04Z" fill="white" stroke="#186CE8" stroke-width="4" stroke-miterlimit="10"/>
<path d="M285.55 149C285.55 141.319 288.597 133.952 294.023 128.515C299.448 123.078 306.809 120.016 314.49 120H145C137.309 120 129.932 123.055 124.494 128.494C119.055 133.932 116 141.309 116 149H285.55Z" fill="white" stroke="#186CE8" stroke-width="4" stroke-miterlimit="10"/>
<path d="M176.91 285.91H249.58" stroke="#D1E2FA" stroke-width="4" stroke-miterlimit="10" stroke-linecap="round"/>
<path d="M176.91 264.91H318.77" stroke="#D1E2FA" stroke-width="4" stroke-miterlimit="10" stroke-linecap="round"/>
<path d="M341.74 253.86C333.441 250.906 324.554 249.989 315.826 251.185C307.099 252.381 298.787 255.656 291.589 260.734C284.391 265.812 278.518 272.545 274.464 280.366C270.411 288.186 268.295 296.866 268.295 305.675C268.295 314.484 270.411 323.164 274.464 330.985C278.518 338.806 284.391 345.539 291.589 350.617C298.787 355.695 307.099 358.97 315.826 360.166C324.554 361.362 333.441 360.444 341.74 357.49V253.86Z" fill="#D1E2FA"/>
<path d="M322.019 339.53C352.389 339.53 377.009 314.91 377.009 284.54C377.009 254.17 352.389 229.55 322.019 229.55C291.649 229.55 267.029 254.17 267.029 284.54C267.029 314.91 291.649 339.53 322.019 339.53Z" fill="#74A7F1" stroke="#186CE8" stroke-width="4" stroke-miterlimit="10"/>
<path d="M318.646 255.203C318.646 253.277 318.646 252.315 318.175 251.539C317.741 250.874 317.097 250.374 316.346 250.119C315.475 249.853 314.666 250.061 313.045 250.473C297.587 254.411 286.158 268.423 286.158 285.105C286.158 304.842 302.158 320.842 321.895 320.842C326.557 320.842 331.011 319.949 335.091 318.328C336.648 317.71 337.424 317.398 337.97 316.671C338.408 316.092 338.675 315.176 338.616 314.448C338.542 313.542 337.976 312.766 336.846 311.209L319.289 287.045C318.871 286.485 318.645 285.804 318.646 285.105V255.203Z" fill="white"/>
<path d="M351.797 288.354C353.723 288.354 354.685 288.354 355.461 288.825C356.079 289.205 356.67 289.959 356.881 290.654C357.147 291.525 356.94 292.334 356.527 293.955C355.22 299.077 352.789 303.843 349.412 307.909C348.34 309.202 347.804 309.845 346.943 310.144C346.185 310.379 345.371 310.352 344.63 310.069C343.792 309.718 343.226 308.939 342.096 307.379L331.271 292.48C330.303 291.148 329.819 290.482 329.835 289.927C329.842 289.687 329.902 289.453 330.01 289.239C330.119 289.026 330.273 288.839 330.462 288.692C330.904 288.354 331.729 288.354 333.373 288.354H351.797Z" fill="white"/>
<path d="M325.144 255.203C325.144 253.277 325.144 252.315 325.615 251.539C325.995 250.918 326.748 250.33 327.444 250.119C328.314 249.853 329.123 250.061 330.744 250.473C343.369 253.689 353.311 263.631 356.527 276.256C356.94 277.877 357.144 278.686 356.881 279.556C356.625 280.308 356.126 280.952 355.461 281.385C354.682 281.857 353.723 281.857 351.797 281.857H327.743C326.833 281.857 326.378 281.857 326.03 281.678C325.726 281.522 325.478 281.274 325.322 280.97C325.144 280.622 325.144 280.167 325.144 279.257V255.203Z" fill="white"/>
<path d="M222.027 241.167H187.972C186.435 241.167 185.111 241.167 184.017 241.079C182.865 240.983 181.716 240.776 180.614 240.213C178.967 239.374 177.629 238.036 176.79 236.389C176.504 235.822 176.291 235.22 176.157 234.598C176.088 234.367 176.058 234.125 176.067 233.884C176.086 233.69 176.141 233.501 176.227 233.327C176.332 233.128 176.478 232.983 176.772 232.691L193.333 216.124L198.42 221.211C198.665 221.456 198.957 221.751 199.237 221.987C199.56 222.261 200.053 222.628 200.733 222.85C201.611 223.135 202.556 223.135 203.434 222.85C204.113 222.628 204.606 222.261 204.93 221.987C205.21 221.751 205.502 221.456 205.747 221.211L216.667 210.291V214.917C216.667 215.69 216.974 216.432 217.521 216.979C218.068 217.526 218.81 217.833 219.583 217.833C220.357 217.833 221.099 217.526 221.646 216.979C222.193 216.432 222.5 215.69 222.5 214.917V203.25C222.5 202.477 222.193 201.735 221.646 201.188C221.099 200.641 220.357 200.333 219.583 200.333H207.917C207.143 200.333 206.401 200.641 205.854 201.188C205.307 201.735 205 202.477 205 203.25C205 204.024 205.307 204.766 205.854 205.313C206.401 205.86 207.143 206.167 207.917 206.167H212.542L202.083 216.626L196.997 211.539C196.752 211.294 196.46 211 196.18 210.763C195.744 210.38 195.236 210.087 194.687 209.9C193.807 209.614 192.859 209.614 191.98 209.9C191.43 210.087 190.923 210.38 190.487 210.763C190.207 211 189.915 211.294 189.67 211.539L179.817 221.392C178.566 222.64 177.942 223.267 177.405 223.308C177.176 223.326 176.945 223.29 176.732 223.202C176.519 223.113 176.33 222.976 176.18 222.801C175.833 222.392 175.833 221.508 175.833 219.741V194.97C175.833 193.433 175.833 192.108 175.921 191.015C176.017 189.863 176.224 188.713 176.787 187.611C177.626 185.965 178.964 184.626 180.611 183.787C181.713 183.224 182.862 183.017 184.015 182.924C185.108 182.833 186.435 182.833 187.97 182.833H222.033C223.57 182.833 224.897 182.833 225.988 182.921C227.14 183.017 228.29 183.224 229.392 183.787C231.038 184.626 232.377 185.965 233.216 187.611C233.779 188.713 233.986 189.863 234.079 191.015C234.169 192.108 234.169 193.436 234.169 194.97V229.033C234.169 230.571 234.17 231.898 234.082 232.988C233.986 234.141 233.779 235.29 233.216 236.392C232.377 238.039 231.038 239.377 229.392 240.216C228.29 240.779 227.14 240.986 225.988 241.079C224.894 241.17 223.567 241.17 222.03 241.17L222.027 241.167Z" fill="#D1E2FA"/>
</svg>
