<svg width="64" height="64" viewBox="0 0 64 64" fill="none" xmlns="http://www.w3.org/2000/svg">
<path d="M35.4241 17.3333C23.7276 17.3333 14.5681 21.8624 14.5681 27.6445V36.4072C14.5681 42.1893 23.7276 46.7185 35.4241 46.7185C47.1206 46.7185 56.2802 42.1893 56.2802 36.4072V27.6445C56.2802 21.8624 47.1206 17.3333 35.4241 17.3333Z" fill="#D1E2FA"/>
<path d="M49.6265 40.0649C49.6265 45.1856 40.7549 49.3334 29.8132 49.3334C18.8716 49.3334 10 45.1856 10 40.0649" stroke="#4689ED" stroke-width="2" stroke-miterlimit="10"/>
<path d="M29.8132 40.5628C40.7558 40.5628 49.6264 36.4132 49.6264 31.2943C49.6264 26.1755 40.7558 22.0259 29.8132 22.0259C18.8707 22.0259 10 26.1755 10 31.2943C10 36.4132 18.8707 40.5628 29.8132 40.5628Z" stroke="#4689ED" stroke-width="2" stroke-miterlimit="10"/>
<path d="M10 31.2944V40.0649" stroke="#4689ED" stroke-width="2" stroke-miterlimit="10"/>
<path d="M49.6265 31.2944V40.0649" stroke="#4689ED" stroke-width="2" stroke-miterlimit="10"/>
<path d="M13.5642 36.6018L45.8132 25.8314" stroke="#4689ED" stroke-width="2" stroke-miterlimit="10"/>
</svg>
