<svg width="500" height="500" viewBox="0 0 500 500" fill="none" xmlns="http://www.w3.org/2000/svg">
<path d="M335.281 161.12H103.231C99.2654 161.12 96.0508 164.335 96.0508 168.3V351.9C96.0508 355.866 99.2654 359.08 103.231 359.08H335.281C339.246 359.08 342.461 355.866 342.461 351.9V168.3C342.461 164.335 339.246 161.12 335.281 161.12Z" fill="#EFF5FE" stroke="#186CE8" stroke-width="4" stroke-miterlimit="10"/>
<path d="M362.009 140.92H129.959C125.994 140.92 122.779 144.135 122.779 148.1V331.7C122.779 335.665 125.994 338.88 129.959 338.88H362.009C365.975 338.88 369.189 335.665 369.189 331.7V148.1C369.189 144.135 365.975 140.92 362.009 140.92Z" fill="white" stroke="#186CE8" stroke-width="3.072" stroke-miterlimit="10"/>
<path d="M307.292 237.771C307.292 234.457 309.978 231.771 313.292 231.771H361.187C364.501 231.771 367.187 234.457 367.187 237.771V320.312H313.292C309.978 320.312 307.292 317.626 307.292 314.312V237.771Z" fill="#D1E2FA"/>
<path d="M132.139 140.92H358.819C361.57 140.92 364.207 142.012 366.152 143.957C368.097 145.902 369.189 148.54 369.189 151.29V178.07H122.779V150.28C122.782 147.798 123.769 145.419 125.524 143.664C127.278 141.91 129.658 140.923 132.139 140.92Z" fill="#EFF5FE"/>
<path d="M147.441 170.01C150.92 170.01 153.741 167.19 153.741 163.71C153.741 160.231 150.92 157.41 147.441 157.41C143.961 157.41 141.141 160.231 141.141 163.71C141.141 167.19 143.961 170.01 147.441 170.01Z" fill="#FA8B6B"/>
<path d="M166.45 170.01C169.93 170.01 172.75 167.19 172.75 163.71C172.75 160.231 169.93 157.41 166.45 157.41C162.971 157.41 160.15 160.231 160.15 163.71C160.15 167.19 162.971 170.01 166.45 170.01Z" fill="#A3C4F6"/>
<path d="M185.45 170.01C188.93 170.01 191.75 167.19 191.75 163.71C191.75 160.231 188.93 157.41 185.45 157.41C181.971 157.41 179.15 160.231 179.15 163.71C179.15 167.19 181.971 170.01 185.45 170.01Z" fill="#A3C4F6"/>
<path d="M362.009 140.92H129.959C125.994 140.92 122.779 144.135 122.779 148.1V331.7C122.779 335.665 125.994 338.88 129.959 338.88H362.009C365.975 338.88 369.189 335.665 369.189 331.7V148.1C369.189 144.135 365.975 140.92 362.009 140.92Z" stroke="#186CE8" stroke-width="4" stroke-miterlimit="10"/>
<mask id="mask0_1041_75" style="mask-type:luminance" maskUnits="userSpaceOnUse" x="125" y="205" width="43" height="90">
<path d="M125 205.729H159.969C164.387 205.729 167.969 209.311 167.969 213.729V286.271C167.969 290.689 164.387 294.271 159.969 294.271H125V205.729Z" fill="white"/>
</mask>
<g mask="url(#mask0_1041_75)">
<path d="M125 205.729H159.969C164.387 205.729 167.969 209.311 167.969 213.729V286.271C167.969 290.689 164.387 294.271 159.969 294.271H125V205.729Z" fill="#EFF5FE"/>
<path d="M144.091 255.46C144.091 261.836 133.045 267 119.422 267C105.799 267 94.7527 261.836 94.7527 255.46" stroke="white" stroke-width="3" stroke-miterlimit="10"/>
<path d="M119.422 256.08C133.046 256.08 144.091 250.913 144.091 244.54C144.091 238.167 133.046 233 119.422 233C105.798 233 94.7527 238.167 94.7527 244.54C94.7527 250.913 105.798 256.08 119.422 256.08Z" stroke="white" stroke-width="3" stroke-miterlimit="10"/>
<path d="M144.091 244.54V255.46" stroke="white" stroke-width="3" stroke-miterlimit="10"/>
<path d="M99.1904 251.148L139.343 237.738" stroke="white" stroke-width="3" stroke-miterlimit="10"/>
</g>
<path d="M279.76 205.729H196.802C192.384 205.729 188.802 209.311 188.802 213.729V286.271C188.802 290.689 192.384 294.271 196.802 294.271H279.76C284.179 294.271 287.76 290.689 287.76 286.271V213.729C287.76 209.311 284.179 205.729 279.76 205.729Z" fill="#D1E2FA"/>
<path fill-rule="evenodd" clip-rule="evenodd" d="M227.279 268.343V264.712L227.293 264.72V255.989C227.293 251.394 230.712 247.704 234.862 247.704H241.708C245.938 247.704 249.277 251.394 249.277 255.989V264.997H249.284V268.628C246.033 270.235 242.38 271.127 238.559 271.127C234.526 271.119 230.676 270.133 227.279 268.343Z" stroke="white" stroke-width="3" stroke-miterlimit="10"/>
<path fill-rule="evenodd" clip-rule="evenodd" d="M231.881 235.266C231.881 238.78 234.76 241.659 238.274 241.659C241.788 241.659 244.667 238.78 244.667 235.266C244.667 231.752 241.788 228.873 238.274 228.873C234.76 228.961 231.881 231.839 231.881 235.266Z" stroke="white" stroke-width="3" stroke-miterlimit="10"/>
<path d="M398.25 205.729H316.594C312.176 205.729 308.594 209.311 308.594 213.729V286.271C308.594 290.689 312.176 294.271 316.594 294.271H398.25C402.668 294.271 406.25 290.689 406.25 286.271V213.729C406.25 209.311 402.668 205.729 398.25 205.729Z" fill="#74A7F1"/>
<path d="M382.091 255.46C382.091 261.836 371.045 267 357.422 267C343.799 267 332.753 261.836 332.753 255.46" stroke="white" stroke-width="3" stroke-miterlimit="10"/>
<path d="M357.422 256.08C371.046 256.08 382.091 250.913 382.091 244.54C382.091 238.167 371.046 233 357.422 233C343.798 233 332.753 238.167 332.753 244.54C332.753 250.913 343.798 256.08 357.422 256.08Z" stroke="white" stroke-width="3" stroke-miterlimit="10"/>
<path d="M332.753 244.54V255.46" stroke="white" stroke-width="3" stroke-miterlimit="10"/>
<path d="M382.091 244.54V255.46" stroke="white" stroke-width="3" stroke-miterlimit="10"/>
<path d="M337.191 251.148L377.343 237.738" stroke="white" stroke-width="3" stroke-miterlimit="10"/>
<path d="M398.25 205.729H316.594C312.176 205.729 308.594 209.311 308.594 213.729V286.271C308.594 290.689 312.176 294.271 316.594 294.271H398.25C402.668 294.271 406.25 290.689 406.25 286.271V213.729C406.25 209.311 402.668 205.729 398.25 205.729Z" stroke="#186CE8" stroke-width="4"/>
</svg>
