<svg width="501" height="500" viewBox="0 0 501 500" fill="none" xmlns="http://www.w3.org/2000/svg">
<mask id="mask0_1038_17" style="mask-type:luminance" maskUnits="userSpaceOnUse" x="129" y="96" width="242" height="308">
<path d="M370.146 96.875H129.521V403.125H370.146V96.875Z" fill="white"/>
</mask>
<g mask="url(#mask0_1038_17)">
<mask id="mask1_1038_17" style="mask-type:luminance" maskUnits="userSpaceOnUse" x="323" y="210" width="46" height="47">
<path d="M346.191 256.004C358.78 256.004 368.986 245.798 368.986 233.209C368.986 220.62 358.78 210.415 346.191 210.415C333.602 210.415 323.396 220.62 323.396 233.209C323.396 245.798 333.602 256.004 346.191 256.004Z" fill="white"/>
</mask>
<g mask="url(#mask1_1038_17)">
<path d="M346.191 256.004C358.78 256.004 368.986 245.798 368.986 233.209C368.986 220.62 358.78 210.415 346.191 210.415C333.602 210.415 323.396 220.62 323.396 233.209C323.396 245.798 333.602 256.004 346.191 256.004Z" stroke="#186CE8" stroke-width="8"/>
</g>
<mask id="mask2_1038_17" style="mask-type:luminance" maskUnits="userSpaceOnUse" x="283" y="260" width="86" height="144">
<path d="M346.191 260.6C333.603 260.6 323.396 270.806 323.396 283.394V328.875L292.743 334.899C287.484 335.907 283.506 340.523 283.506 346.079V394.518C283.506 399.236 287.335 403.066 292.054 403.066C296.772 403.066 300.152 399.134 300.71 394.518C300.921 392.768 305.218 357.477 305.218 357.477H346.191C358.779 357.477 368.985 347.27 368.985 334.682V283.394C368.985 270.806 358.779 260.6 346.191 260.6Z" fill="white"/>
</mask>
<g mask="url(#mask2_1038_17)">
<path d="M346.191 260.6C333.603 260.6 323.396 270.806 323.396 283.394V328.875L292.743 334.899C287.484 335.907 283.506 340.523 283.506 346.079V394.518C283.506 399.236 287.335 403.066 292.054 403.066C296.772 403.066 300.152 399.134 300.71 394.518C300.921 392.768 305.218 357.477 305.218 357.477H346.191C358.779 357.477 368.985 347.27 368.985 334.682V283.394C368.985 270.806 358.779 260.6 346.191 260.6Z" stroke="#186CE8" stroke-width="8"/>
</g>
<mask id="mask3_1038_17" style="mask-type:luminance" maskUnits="userSpaceOnUse" x="129" y="210" width="47" height="47">
<path d="M152.437 256.004C165.026 256.004 175.232 245.798 175.232 233.209C175.232 220.62 165.026 210.415 152.437 210.415C139.848 210.415 129.643 220.62 129.643 233.209C129.643 245.798 139.848 256.004 152.437 256.004Z" fill="white"/>
</mask>
<g mask="url(#mask3_1038_17)">
<path d="M152.437 256.004C165.026 256.004 175.232 245.798 175.232 233.209C175.232 220.62 165.026 210.415 152.437 210.415C139.848 210.415 129.643 220.62 129.643 233.209C129.643 245.798 139.848 256.004 152.437 256.004Z" stroke="#186CE8" stroke-width="8"/>
</g>
<path d="M130.521 276.875C130.521 265.277 139.924 255.875 151.521 255.875C163.119 255.875 172.521 265.277 172.521 276.875V326.875H130.521V276.875Z" fill="#EFF5FE"/>
<path d="M171.021 319.875L132.021 325.375C132.021 339.775 143.355 344.375 149.021 344.875L192.521 345.875C194.021 356.542 197.121 379.175 197.521 384.375C202.721 392.775 207.688 386.875 209.521 382.875V340.875C209.521 330.075 205.521 327.708 203.521 327.875L171.021 319.875Z" fill="#D1E2FA"/>
<mask id="mask4_1038_17" style="mask-type:luminance" maskUnits="userSpaceOnUse" x="129" y="260" width="87" height="144">
<path d="M152.437 260.6C165.025 260.6 175.232 270.806 175.232 283.394V328.875L205.885 334.899C211.145 335.907 215.122 340.523 215.122 346.079V394.518C215.122 399.236 211.293 403.066 206.574 403.066C201.856 403.066 198.476 399.134 197.918 394.518C197.707 392.768 193.41 357.477 193.41 357.477H152.437C139.849 357.477 129.643 347.27 129.643 334.682V283.394C129.643 270.806 139.849 260.6 152.437 260.6Z" fill="white"/>
</mask>
<g mask="url(#mask4_1038_17)">
<path d="M174.979 326.891L129.39 332.698L129.895 336.666L175.484 330.859L174.979 326.891ZM175.232 328.875H171.232V332.166L174.46 332.8L175.232 328.875ZM205.885 334.899L205.113 338.824L205.122 338.825L205.131 338.827L205.885 334.899ZM193.41 357.477L197.381 356.993L196.953 353.477H193.41V357.477ZM152.437 264.6C162.816 264.6 171.232 273.015 171.232 283.394H179.232C179.232 268.597 167.235 256.6 152.437 256.6V264.6ZM171.232 283.394V328.875H179.232V283.394H171.232ZM174.46 332.8L205.113 338.824L206.656 330.974L176.003 324.95L174.46 332.8ZM205.131 338.827C208.548 339.482 211.122 342.483 211.122 346.079H219.122C219.122 338.563 213.741 332.333 206.638 330.97L205.131 338.827ZM211.122 346.079V394.518H219.122V346.079H211.122ZM211.122 394.518C211.122 397.027 209.084 399.066 206.574 399.066V407.066C213.502 407.066 219.122 401.446 219.122 394.518H211.122ZM206.574 399.066C204.412 399.066 202.274 397.223 201.889 394.037L193.947 394.997C194.679 401.044 199.299 407.066 206.574 407.066V399.066ZM201.889 394.039C201.783 393.161 200.656 383.897 199.556 374.858C199.006 370.337 198.462 365.871 198.056 362.535C197.853 360.867 197.684 359.482 197.566 358.513C197.507 358.029 197.461 357.649 197.429 357.39C197.414 357.261 197.402 357.161 197.393 357.095C197.389 357.061 197.386 357.036 197.384 357.019C197.383 357.01 197.382 357.004 197.382 357C197.382 356.998 197.381 356.996 197.381 356.995C197.381 356.994 197.381 356.993 197.381 356.993C197.381 356.992 197.381 356.993 193.41 357.477C189.44 357.96 189.44 357.96 189.44 357.961C189.44 357.961 189.44 357.961 189.44 357.962C189.44 357.963 189.44 357.964 189.44 357.967C189.441 357.971 189.442 357.977 189.443 357.986C189.445 358.003 189.448 358.028 189.452 358.061C189.46 358.128 189.472 358.227 189.488 358.357C189.52 358.616 189.566 358.996 189.625 359.48C189.743 360.448 189.911 361.834 190.114 363.502C190.52 366.838 191.064 371.304 191.614 375.825C192.715 384.869 193.842 394.125 193.947 394.997L201.889 394.039ZM193.41 353.477H152.437V361.477H193.41V353.477ZM152.437 353.477C142.058 353.477 133.643 345.061 133.643 334.682H125.643C125.643 349.48 137.64 361.477 152.437 361.477V353.477ZM133.643 334.682V283.394H125.643V334.682H133.643ZM133.643 283.394C133.643 273.015 142.058 264.6 152.437 264.6V256.6C137.64 256.6 125.643 268.597 125.643 283.394H133.643Z" fill="#186CE8"/>
</g>
<path d="M300.6 317.586H198.025C194.879 317.586 192.326 315.033 192.326 311.888V306.189C192.326 303.043 194.879 300.49 198.025 300.49H300.6C303.746 300.49 306.299 303.043 306.299 306.189V311.888C306.299 315.033 303.746 317.586 300.6 317.586Z" fill="#D1E2FA"/>
<path d="M313.98 120.833H174.23C173.126 120.833 172.23 121.729 172.23 122.833V210.031C172.23 211.135 173.126 212.031 174.23 212.031H188.135C189.24 212.031 190.135 212.926 190.135 214.031V232.677C190.135 234.585 192.553 235.41 193.719 233.899L209.997 212.809C210.376 212.318 210.961 212.031 211.581 212.031H313.98C315.085 212.031 315.98 211.135 315.98 210.031V122.833C315.98 121.729 315.085 120.833 313.98 120.833Z" fill="white" stroke="#FA8B6B" stroke-width="4"/>
<path d="M292.647 145.833H195.564C194.183 145.833 193.064 146.952 193.064 148.333V148.541C193.064 149.922 194.183 151.041 195.564 151.041H292.647C294.028 151.041 295.147 149.922 295.147 148.541V148.333C295.147 146.952 294.028 145.833 292.647 145.833Z" fill="#FDC5B5"/>
<path d="M292.647 162.5H195.564C194.183 162.5 193.064 163.619 193.064 165V165.208C193.064 166.589 194.183 167.708 195.564 167.708H292.647C294.028 167.708 295.147 166.589 295.147 165.208V165C295.147 163.619 294.028 162.5 292.647 162.5Z" fill="#FEE2DA"/>
<path d="M292.647 180.208H195.564C194.183 180.208 193.064 181.327 193.064 182.708V182.916C193.064 184.297 194.183 185.416 195.564 185.416H292.647C294.028 185.416 295.147 184.297 295.147 182.916V182.708C295.147 181.327 294.028 180.208 292.647 180.208Z" fill="#FFF8F6"/>
<path d="M181.865 269.933C185.558 266.24 191.547 266.24 195.241 269.933C198.934 273.627 198.934 279.616 195.241 283.309L181.719 296.831C174.166 304.384 162.074 304.633 154.222 297.576L181.865 269.933Z" fill="#FAFAFA" stroke="#186CE8" stroke-width="4"/>
<path d="M146.329 291.642C142.635 287.949 142.635 281.96 146.329 278.266C150.023 274.573 156.011 274.573 159.705 278.266L180.052 298.613C172.575 305.937 160.577 305.89 153.159 298.472L146.329 291.642Z" fill="#D1E2FA" stroke="#186CE8" stroke-width="4"/>
</g>
</svg>
