<svg width="64" height="64" viewBox="0 0 64 64" fill="none" xmlns="http://www.w3.org/2000/svg">
<path fill-rule="evenodd" clip-rule="evenodd" d="M37.9759 13.7565C38.2486 13.5091 38.2691 13.0875 38.0217 12.8148C37.7744 12.5421 37.3527 12.5216 37.08 12.769C36.4702 13.3223 35.9935 13.9729 35.6423 14.5645C32.8918 18.9806 33.8171 27.2965 34.3697 30.7284C31.007 30.2486 23.027 29.5096 18.5295 32.131C18.3325 32.2238 18.1168 32.3341 17.8903 32.4616C17.1805 32.8614 16.3329 33.4488 15.622 34.2272C15.3553 34.5192 15.361 34.9556 15.6346 35.2021C15.9082 35.4486 16.3462 35.4117 16.6128 35.1197C17.1813 34.4973 17.8841 34.0039 18.5023 33.6557C18.7736 33.5029 19.0226 33.3815 19.2279 33.292L33.5278 47.5927C33.4384 47.7979 33.3171 48.0466 33.1643 48.3178C32.8162 48.936 32.3227 49.6387 31.7003 50.2072C31.4084 50.4739 31.3715 50.9118 31.618 51.1855C31.8644 51.4591 32.3009 51.4648 32.5928 51.1981C33.3713 50.4871 33.9586 49.6396 34.3584 48.9297C34.4219 48.8171 34.481 48.7071 34.5359 48.6008L34.537 48.6019C35.8103 46.281 37.4083 39.6693 36.249 32.6179C42.1077 33.7412 47.4815 33.0458 50.5998 31.9316C50.7269 31.8955 50.8679 31.8464 51.0111 31.7906C51.258 31.6944 51.5543 31.5616 51.874 31.3919C52.0135 31.321 52.1444 31.2494 52.2662 31.1774L52.2623 31.1735C52.8522 30.8227 53.4998 30.3473 54.0509 29.7399C54.2983 29.4672 54.2778 29.0456 54.0051 28.7982C53.7324 28.5508 53.3108 28.5713 53.0634 28.844C52.536 29.4253 51.8745 29.8775 51.2896 30.1924L51.2841 30.1954L36.6243 15.5363L36.6275 15.5303C36.9424 14.9455 37.3946 14.2839 37.9759 13.7565Z" fill="#D1E2FA"/>
<path d="M27.1429 48.0271C27.5334 48.4176 28.1666 48.4176 28.5571 48.0271C28.9476 47.6365 28.9476 47.0034 28.5571 46.6128L27.1429 48.0271ZM16.1146 34.1703C15.7241 33.7798 15.0909 33.7798 14.7004 34.1703C14.3098 34.5609 14.3098 35.194 14.7004 35.5845L16.1146 34.1703ZM28.5571 46.6128L16.1146 34.1703L14.7004 35.5845L27.1429 48.0271L28.5571 46.6128Z" fill="#4689ED"/>
<path d="M42.3719 27.4294C42.7624 27.8199 42.7624 28.4531 42.3719 28.8436C41.9814 29.2341 41.3482 29.2341 40.9577 28.8436L42.3719 27.4294ZM28.5152 16.4011C28.1247 16.0106 28.1247 15.3774 28.5152 14.9869C28.9057 14.5963 29.5389 14.5963 29.9294 14.9869L28.5152 16.4011ZM40.9577 28.8436L28.5152 16.4011L29.9294 14.9869L42.3719 27.4294L40.9577 28.8436Z" fill="#4689ED"/>
<path d="M28.6288 41.9706C29.0193 42.3612 29.6525 42.3612 30.043 41.9706C30.4335 41.5801 30.4335 40.947 30.043 40.5564L28.6288 41.9706ZM22.7519 33.2653C22.3614 32.8748 21.7282 32.8748 21.3377 33.2653C20.9472 33.6558 20.9472 34.289 21.3377 34.6795L22.7519 33.2653ZM30.043 40.5564L22.7519 33.2653L21.3377 34.6795L28.6288 41.9706L30.043 40.5564Z" fill="#4689ED"/>
<path d="M35.7557 28.3556C36.1462 28.7461 36.1462 29.3793 35.7557 29.7698C35.3651 30.1604 34.732 30.1604 34.3415 29.7698L35.7557 28.3556ZM27.0503 22.4787C26.6598 22.0882 26.6598 21.455 27.0503 21.0645C27.4409 20.674 28.074 20.674 28.4646 21.0645L27.0503 22.4787ZM34.3415 29.7698L27.0503 22.4787L28.4646 21.0645L35.7557 28.3556L34.3415 29.7698Z" fill="#4689ED"/>
<path d="M31.5929 14.0196C32.0187 13.6678 32.0787 13.0375 31.727 12.6117C31.3752 12.1859 30.7449 12.1259 30.3191 12.4777L31.5929 14.0196ZM24.8889 49.9618C24.4673 50.3186 24.4147 50.9496 24.7714 51.3712C25.1282 51.7928 25.7591 51.8454 26.1807 51.4886L24.8889 49.9618ZM30.3191 12.4777C29.1881 13.412 27.9039 15.459 27.2044 18.6123C26.4981 21.7955 26.3707 26.1676 27.6224 31.8486L29.5756 31.4182C28.376 25.974 28.5235 21.9002 29.1569 19.0455C29.7969 16.1608 30.9168 14.5781 31.5929 14.0196L30.3191 12.4777ZM27.6224 31.8486C30.0199 42.7295 26.5667 48.5421 24.8889 49.9618L26.1807 51.4886C28.5884 49.4514 32.0807 42.7875 29.5756 31.4182L27.6224 31.8486Z" fill="#4689ED"/>
<path d="M46.2127 28.6394C46.5645 28.2136 47.1948 28.1536 47.6206 28.5053C48.0464 28.8571 48.1064 29.4874 47.7546 29.9132L46.2127 28.6394ZM10.2705 35.3434C9.91375 35.765 9.28277 35.8176 8.86116 35.4609C8.43956 35.1041 8.38697 34.4732 8.74371 34.0515L10.2705 35.3434ZM47.7546 29.9132C46.8203 31.0442 44.7733 32.3284 41.62 33.0279C38.4368 33.7342 34.0647 33.8616 28.3837 32.6099L28.8141 30.6567C34.2583 31.8563 38.3321 31.7088 41.1868 31.0754C44.0715 30.4354 45.6542 29.3155 46.2127 28.6394L47.7546 29.9132ZM28.3837 32.6099C17.5028 30.2124 11.6902 33.6656 10.2705 35.3434L8.74371 34.0515C10.7809 31.6439 17.4448 28.1516 28.8141 30.6567L28.3837 32.6099Z" fill="#4689ED"/>
</svg>
