<svg width="96" height="96" viewBox="0 0 96 96" fill="none" xmlns="http://www.w3.org/2000/svg">
<path d="M92.6789 30.3166C93.3003 29.7297 92.9677 28.6475 92.1276 28.5466C90.5255 28.3689 86.193 29.331 83.5685 27.0885C81.7403 25.5264 80.8357 21.9124 80.5186 20.3486C80.4187 19.8555 80.3306 19.2724 79.8677 19.0751C79.531 18.9316 79.1274 18.9937 78.8485 19.2615C78.6476 19.4544 78.5796 19.7397 78.4982 20.006C78.0838 21.3626 76.5696 25.7971 74.003 27.5885C71.1129 29.6057 68.5172 28.4313 66.8703 28.5466C66.0389 28.6383 65.6976 29.7205 66.3189 30.3166C67.4892 31.4227 71.555 33.3356 72.4188 36.7635C73.0188 39.1443 71.7332 42.6089 71.1114 44.074C70.9131 44.5413 70.6604 45.0699 70.9172 45.5078C71.0419 45.7205 71.2395 45.8804 71.4663 45.9544C71.9707 46.1191 72.4175 45.6663 72.8044 45.3033C73.9632 44.2163 76.6831 41.9072 79.0088 41.7707C82.3906 41.5722 85.3998 45.0431 86.7541 45.8608C87.248 46.1601 87.8147 45.9464 88.0718 45.508C88.3287 45.07 88.076 44.5412 87.8776 44.0738C87.2557 42.6086 85.97 39.1441 86.5703 36.7635C87.4352 33.3333 91.5002 31.429 92.6789 30.3166Z" fill="#D1E2FA"/>
<path d="M65.7978 21.1253C66.1891 20.7557 65.9797 20.0744 65.4507 20.0108C64.442 19.899 61.7141 20.5047 60.0616 19.0928C59.0074 18.192 58.441 16.2077 58.1998 15.1237C58.0905 14.6325 57.9592 13.9659 57.4572 14.0015C57.3731 14.0075 57.29 14.0313 57.2141 14.0731C56.9702 14.2074 56.908 14.5145 56.8236 14.7799C56.5086 15.77 55.5719 18.3376 54.0389 19.4076C52.2192 20.6777 50.5849 19.9382 49.548 20.0108C49.0245 20.0686 48.8096 20.7499 49.2008 21.1253C49.9377 21.8217 52.4976 23.0261 53.0415 25.1844C53.3933 26.5807 52.7152 28.569 52.3042 29.5805C52.1282 30.0136 51.8836 30.5753 52.249 30.8669C52.6309 31.1716 53.0937 30.7315 53.4556 30.4033C54.2578 29.6758 55.8312 28.4169 57.1908 28.3371C59.32 28.2121 61.2147 30.3975 62.0674 30.9124C62.2851 31.0443 62.5252 31.0179 62.7053 30.8955C63.1252 30.61 62.8559 29.9965 62.6667 29.5253C62.254 28.4981 61.6059 26.5557 61.9517 25.1844C62.4962 23.0247 65.0557 21.8257 65.7978 21.1253Z" fill="#D1E2FA"/>
<path d="M53.1361 26C35.5914 26 21.8521 32.7938 21.8521 41.4669V54.6109C21.8521 63.284 35.5914 70.0778 53.1361 70.0778C70.6808 70.0778 84.42 63.284 84.42 54.6109V41.4669C84.42 32.7938 70.6808 26 53.1361 26Z" fill="#D1E2FA"/>
<path d="M84.6789 30.3166C85.3003 29.7297 84.9677 28.6475 84.1276 28.5466C82.5255 28.3689 78.193 29.331 75.5685 27.0885C73.7403 25.5264 72.8357 21.9124 72.5186 20.3486C72.4187 19.8555 72.3306 19.2724 71.8677 19.0751C71.531 18.9316 71.1274 18.9937 70.8485 19.2615C70.6476 19.4544 70.5796 19.7397 70.4982 20.006C70.0838 21.3626 68.5696 25.7971 66.003 27.5885C63.1129 29.6057 60.5172 28.4313 58.8703 28.5466C58.0389 28.6383 57.6976 29.7205 58.3189 30.3166C59.4892 31.4227 63.555 33.3356 64.4188 36.7635C65.0188 39.1443 63.7332 42.6089 63.1114 44.074C62.9131 44.5413 62.6604 45.0699 62.9172 45.5078C63.0419 45.7205 63.2395 45.8804 63.4663 45.9544C63.9707 46.1191 64.4175 45.6663 64.8044 45.3033C65.9632 44.2163 68.6831 41.9072 71.0088 41.7707C74.3906 41.5722 77.3998 45.0431 78.7541 45.8608C79.248 46.1601 79.8147 45.9464 80.0718 45.508C80.3287 45.07 80.076 44.5412 79.8776 44.0738C79.2557 42.6086 77.97 39.1441 78.5703 36.7635C79.4352 33.3333 83.5002 31.429 84.6789 30.3166Z" stroke="#4689ED" stroke-width="2" stroke-miterlimit="10"/>
<path d="M57.7978 21.1253C58.1891 20.7557 57.9797 20.0744 57.4507 20.0108C56.442 19.899 53.7141 20.5047 52.0616 19.0928C51.0074 18.192 50.441 16.2077 50.1998 15.1237C50.0905 14.6325 49.9592 13.9659 49.4572 14.0015C49.3731 14.0075 49.29 14.0313 49.2141 14.0731C48.9702 14.2074 48.908 14.5145 48.8236 14.7799C48.5086 15.77 47.5719 18.3376 46.0389 19.4076C44.2192 20.6777 42.5849 19.9382 41.548 20.0108C41.0245 20.0686 40.8096 20.7499 41.2008 21.1253C41.9377 21.8217 44.4976 23.0261 45.0415 25.1844C45.3933 26.5807 44.7152 28.569 44.3042 29.5805C44.1282 30.0136 43.8836 30.5753 44.249 30.8669C44.6309 31.1716 45.0937 30.7315 45.4556 30.4033C46.2578 29.6758 47.8312 28.4169 49.1908 28.3371C51.32 28.2121 53.2147 30.3975 54.0674 30.9124C54.2851 31.0443 54.5252 31.0179 54.7053 30.8955C55.1252 30.61 54.8559 29.9965 54.6667 29.5253C54.254 28.4981 53.6059 26.5557 53.9517 25.1844C54.4962 23.0247 57.0557 21.8257 57.7978 21.1253Z" stroke="#4689ED" stroke-width="2" stroke-miterlimit="10"/>
<path d="M74.4397 60.0972C74.4397 67.7781 61.1323 73.9999 44.7198 73.9999C28.3074 73.9999 15 67.7781 15 60.0972" stroke="#4689ED" stroke-width="2" stroke-miterlimit="10"/>
<path d="M74.4397 46.9415C74.4397 54.6197 61.1337 60.8442 44.7198 60.8442C28.306 60.8442 15 54.6197 15 46.9415C15 40.8555 23.3594 35.683 35 33.7993L39.5 33" stroke="#4689ED" stroke-width="2" stroke-miterlimit="10"/>
<path d="M15 46.9414V60.0971" stroke="#4689ED" stroke-width="2" stroke-miterlimit="10"/>
<path d="M74.4395 46.9414V60.0971" stroke="#4689ED" stroke-width="2" stroke-miterlimit="10"/>
<path d="M20.3462 54.9029L44.533 46.825L59.0005 42" stroke="#4689ED" stroke-width="2" stroke-miterlimit="10"/>
</svg>
