<svg width="501" height="500" viewBox="0 0 501 500" fill="none" xmlns="http://www.w3.org/2000/svg">
<path d="M309.214 92.7498H115.855V211.888H139.939V246.522L167.464 211.888H309.214V92.7498Z" fill="white" stroke="#4689ED" stroke-width="4"/>
<path d="M278.062 125.383H153.697C152.316 125.383 151.197 126.502 151.197 127.883V129.81C151.197 131.19 152.316 132.31 153.697 132.31H278.062C279.443 132.31 280.562 131.19 280.562 129.81V127.883C280.562 126.502 279.443 125.383 278.062 125.383Z" fill="#A3C4F6"/>
<path d="M278.062 147.548H153.697C152.316 147.548 151.197 148.667 151.197 150.048V151.975C151.197 153.355 152.316 154.475 153.697 154.475H278.062C279.443 154.475 280.562 153.355 280.562 151.975V150.048C280.562 148.667 279.443 147.548 278.062 147.548Z" fill="#D1E2FA"/>
<path d="M278.062 169.714H153.697C152.316 169.714 151.197 170.833 151.197 172.214V174.141C151.197 175.521 152.316 176.641 153.697 176.641H278.062C279.443 176.641 280.562 175.521 280.562 174.141V172.214C280.562 170.833 279.443 169.714 278.062 169.714Z" fill="#EFF5FE"/>
<path d="M271.592 116.515C268.761 106.402 274.49 98.1322 277.692 94.7612H291.818L303.448 116.515L305.47 142.303L289.29 152.921L275.603 209.889H255.926C249.454 182.382 262.996 163.202 271.592 156.46V149.382L284.739 139.269C281.537 135.898 274.424 126.628 271.592 116.515Z" fill="#D1E2FA"/>
<path d="M115.855 412.314H384.855" stroke="#186CE8" stroke-width="4"/>
<path d="M346.391 395.089L334.857 364.924L347.279 359.6L355.264 391.541L346.391 395.089Z" fill="white" stroke="#186CE8" stroke-width="4"/>
<path d="M266.541 399.525L262.992 369.359L276.301 367.585V399.525H266.541Z" fill="white" stroke="#186CE8" stroke-width="4"/>
<path d="M279.849 119.162C277.719 107.805 284.876 100.826 288.721 98.7556L301.143 102.305L297.594 135.132C292.566 134.54 281.978 130.518 279.849 119.162Z" fill="white" stroke="#186CE8" stroke-width="4"/>
<path d="M339.293 187.478L329.534 175.056L316.225 183.041L320.662 188.365L304.691 220.305L310.902 232.726L339.293 187.478Z" fill="white" stroke="#186CE8" stroke-width="4"/>
<path d="M331.308 169.734L311.789 150.215C316.758 159.442 316.817 176.536 316.225 183.929L329.534 175.057C333.083 172.395 332.195 170.621 331.308 169.734Z" fill="#EFF5FE" stroke="#186CE8" stroke-width="4"/>
<path d="M259.441 368.472C253.763 289.686 261.807 233.317 266.539 214.981H303.804C327.76 256.681 350.827 349.84 352.602 355.164C353.312 359.422 350.532 361.67 349.053 362.261C346.096 363.444 339.471 365.988 336.632 366.697C333.793 367.407 331.9 365.81 331.308 364.923C320.662 340.672 298.658 290.573 295.819 284.185C292.27 277.797 290.2 282.115 289.609 285.072C286.356 310.506 279.849 362.616 279.849 367.585C278.43 371.134 276.3 372.021 275.413 372.021H263.879C262.104 372.317 258.732 372.021 259.441 368.472Z" fill="#D1E2FA" stroke="#186CE8" stroke-width="4"/>
<path d="M284.288 101.416L297.596 107.627C295.525 115.021 291.206 130.34 290.497 132.469C289.609 135.131 292.271 136.906 294.046 136.906C295.465 136.906 298.777 135.131 300.256 134.244L301.143 138.68L325.099 144.891C328.647 145.6 329.535 144.003 329.535 143.116C331.309 136.906 331.664 119.516 318.888 99.642C302.918 74.7996 284.288 96.0931 283.4 97.8675C282.691 99.2871 283.696 100.825 284.288 101.416Z" fill="#FA8B6B" stroke="#186CE8" stroke-width="4"/>
<path d="M279.85 161.749C280.146 160.27 280.738 156.78 280.738 154.651C286.416 145.424 295.525 140.455 301.144 138.681L310.903 141.342C310.016 142.821 308.951 145.956 311.791 150.215C323.857 170.798 312.086 201.97 304.693 214.982H266.542C259.444 180.203 272.457 165.002 279.85 161.749Z" fill="#EFF5FE" stroke="#186CE8" stroke-width="4"/>
<path d="M288.737 254.908L287.85 178.606L305.595 183.042L300.271 254.908C302.046 256.682 302.941 258 302.933 261.118C302.918 267.329 297.61 269.695 294.948 269.99C292.286 270.286 287.396 268.463 286.06 263.78C284.468 258.204 287.555 255.499 288.737 254.908Z" fill="white" stroke="#186CE8" stroke-width="4"/>
<path d="M285.173 174.17L291.384 155.538C292.67 151.679 295.468 150.973 296.706 151.102C300.255 151.989 307.886 153.941 310.015 154.651C312.144 155.361 312.085 157.904 311.789 159.087C311.494 165.298 310.902 178.783 310.902 183.042C309.483 185.881 306.17 185.408 304.691 184.817C299.96 183.042 289.787 179.316 286.948 178.606C284.819 177.186 284.878 175.057 285.173 174.17Z" fill="#EFF5FE" stroke="#186CE8" stroke-width="4"/>
<path d="M278.076 411.059H247.91C247.91 402.542 254.416 399.229 257.67 398.638H278.076V411.059Z" fill="#186CE8" stroke="#186CE8" stroke-width="4"/>
<path d="M360.845 401.179L331.931 409.776C329.503 401.612 334.796 396.583 337.745 395.089L357.305 389.273L360.845 401.179Z" fill="#186CE8" stroke="#186CE8" stroke-width="4"/>
</svg>
